<mxfile host="app.diagrams.net" modified="2020-10-14T11:56:04.844Z" agent="5.0 (Windows NT 10.0; Win64; x64) AppleWebKit/537.36 (KHTML, like Gecko) Chrome/86.0.4240.75 Safari/537.36" etag="QZVuoruBK9hqIptiFdta" version="13.8.0" type="github">
  <diagram id="Byd3RXpcaXETvZDjdRjU" name="Page-1">
    <mxGraphModel dx="2076" dy="1160" grid="1" gridSize="10" guides="1" tooltips="1" connect="1" arrows="1" fold="1" page="1" pageScale="1" pageWidth="827" pageHeight="1169" math="0" shadow="0">
      <root>
        <mxCell id="0" />
        <mxCell id="1" parent="0" />
      </root>
    </mxGraphModel>
  </diagram>
</mxfile>
